<svg width="16" height="16" viewBox="0.5 0.5 15 15" fill="none" xmlns="http://www.w3.org/2000/svg">
<path fill-rule="evenodd" clip-rule="evenodd" d="M0.929124 13.6569C0.538599 14.0474 0.538599 14.6806 0.929124 15.0711C1.31965 15.4616 1.95281 15.4616 2.34334 15.0711L8.0002 9.41426L13.6571 15.0711C14.0476 15.4616 14.6807 15.4616 15.0713 15.0711C15.4618 14.6806 15.4618 14.0474 15.0713 13.6569L9.41441 8.00005L15.0713 2.3432C15.4618 1.95268 15.4618 1.31951 15.0713 0.928986C14.6807 0.538462 14.0476 0.538462 13.657 0.928986L8.0002 6.58584L2.34335 0.928986C1.95282 0.538462 1.31966 0.538462 0.929134 0.928986C0.538609 1.31951 0.53861 1.95268 0.929134 2.3432L6.58598 8.00005L0.929124 13.6569Z" fill="#A0A0A4"/>
</svg>
