<svg width="20" height="16" viewBox="0 0 20 16" fill="none" xmlns="http://www.w3.org/2000/svg">
<path fill-rule="evenodd" clip-rule="evenodd" d="M3.03386 2.05857C2.2658 2.75224 1.76675 3.83284 1.99484 5.42928C2.22323 7.02783 3.26485 8.68522 4.80427 10.3478C6.25856 11.9184 8.10953 13.4437 9.99986 14.874C11.8902 13.4437 13.7412 11.9184 15.1955 10.3478C16.7349 8.68521 17.7765 7.02783 18.0049 5.4293C18.2329 3.83285 17.7339 2.75224 16.9658 2.05856C16.1765 1.34572 15.0549 1 13.9999 1C12.1318 1 11.0922 2.08479 10.5176 2.68443C10.458 2.7466 10.4034 2.80356 10.3534 2.85355C10.1582 3.04882 9.84157 3.04882 9.64631 2.85355C9.59632 2.80356 9.54173 2.7466 9.48215 2.68443C8.90748 2.08479 7.86788 1 5.99986 1C4.94486 1 3.82316 1.34573 3.03386 2.05857ZM2.36361 1.31643C3.3736 0.404274 4.75192 0 5.99986 0C8.07114 0 9.3453 1.11257 9.99986 1.77862C10.6544 1.11257 11.9286 0 13.9999 0C15.2478 0 16.6261 0.404275 17.6361 1.31644C18.6673 2.24776 19.2668 3.66715 18.9948 5.5707C18.7232 7.47217 17.5148 9.31479 15.9293 11.0272C14.3354 12.7486 12.3063 14.3952 10.2999 15.9C10.1221 16.0333 9.87764 16.0333 9.69986 15.9C7.69344 14.3952 5.66434 12.7485 4.0705 11.0272C2.48494 9.31478 1.27656 7.47217 1.00489 5.57072C0.732921 3.66716 1.3324 2.24776 2.36361 1.31643Z" fill="black"/>
</svg>
